# xmcd CD database file
#
# Track frame offsets:
#	150
#	15665
#	37500
#	56527
#	72250
#	101115
#	116477
#	135200
#	150392
#	167432
#
# Disc length: 2698 seconds
#
# Revision: 0
# Processed by: cddbd v1.5PL3 Copyright (c) Steve Scherf et al.
# Submitted via: CDex 1.40Release
#
DISCID=6b0a880a
DTITLE=八神純子 - 素顔の私
DYEAR=1998
DGENRE=JPop
TTITLE0=バースデイ・ソング
TTITLE1=明日に向かって行け
TTITLE2=揺れる気持
TTITLE3=みずいろの雨
TTITLE4=夜間飛行
TTITLE5=アダムとイブ
TTITLE6=そっと後から
TTITLE7=ハロー・アンド・グッドバイ
TTITLE8=渚
TTITLE9=DAWN
EXTD=YEAR: 1998
EXTT0=
EXTT1=
EXTT2=
EXTT3=
EXTT4=
EXTT5=
EXTT6=
EXTT7=
EXTT8=
EXTT9=
PLAYORDER=
